<?xml version="1.0" standalone="no"?>
<!DOCTYPE svg PUBLIC "-//W3C//DTD SVG 20010904//EN"
 "http://www.w3.org/TR/2001/REC-SVG-20010904/DTD/svg10.dtd">
<svg version="1.0" xmlns="http://www.w3.org/2000/svg"
 width="64.000000pt" height="64.000000pt" viewBox="0 0 64.000000 64.000000"
 preserveAspectRatio="xMidYMid meet">
<metadata>
Created by potrace 1.16, written by Peter Selinger 2001-2019
</metadata>
<g transform="translate(0.000000,64.000000) scale(0.100000,-0.100000)"
fill="#000000" stroke="none">
<path d="M80 625 c0 -11 -11 -15 -40 -15 l-40 0 0 -90 0 -90 43 0 42 0 -2
-215 -3 -215 241 0 240 0 -2 263 -1 262 -56 58 -56 57 -183 0 c-156 0 -183 -2
-183 -15z m280 -105 l0 -70 -170 0 -170 0 0 70 0 70 170 0 170 0 0 -70z"/>
</g>
</svg>
