<?xml version="1.0" standalone="no"?>
<!DOCTYPE svg PUBLIC "-//W3C//DTD SVG 20010904//EN"
 "http://www.w3.org/TR/2001/REC-SVG-20010904/DTD/svg10.dtd">
<svg version="1.0" xmlns="http://www.w3.org/2000/svg"
 width="64.000000pt" height="64.000000pt" viewBox="0 0 64.000000 64.000000"
 preserveAspectRatio="xMidYMid meet">
<metadata>
Created by potrace 1.16, written by Peter Selinger 2001-2019
</metadata>
<g transform="translate(0.000000,64.000000) scale(0.100000,-0.100000)"
fill="#000000" stroke="none">
<path d="M80 625 c0 -11 -11 -15 -40 -15 l-40 0 0 -90 0 -90 190 0 190 0 0 90
0 89 -142 4 -143 3 163 2 162 2 0 -60 0 -60 60 0 c33 0 60 -4 60 -10 0 -5 5
-10 10 -10 6 0 10 10 10 23 0 14 -21 43 -58 80 l-58 57 -182 0 c-155 0 -182
-2 -182 -15z m280 -105 l0 -70 -170 0 -170 0 0 70 0 70 170 0 170 0 0 -70z"/>
<path d="M540 220 l0 -200 -220 0 c-213 0 -220 1 -220 20 0 11 -4 20 -10 20
-5 0 -10 -13 -10 -30 l0 -30 240 0 240 0 0 210 c0 133 -4 210 -10 210 -6 0
-10 -73 -10 -200z"/>
</g>
</svg>
