<?xml version="1.0" standalone="no"?>
<!DOCTYPE svg PUBLIC "-//W3C//DTD SVG 20010904//EN"
 "http://www.w3.org/TR/2001/REC-SVG-20010904/DTD/svg10.dtd">
<svg version="1.0" xmlns="http://www.w3.org/2000/svg"
 width="64.000000pt" height="64.000000pt" viewBox="0 0 64.000000 64.000000"
 preserveAspectRatio="xMidYMid meet">
<metadata>
Created by potrace 1.16, written by Peter Selinger 2001-2019
</metadata>
<g transform="translate(0.000000,64.000000) scale(0.100000,-0.100000)"
fill="#000000" stroke="none">
<path d="M80 625 c0 -11 -11 -15 -40 -15 l-40 0 0 -90 0 -90 46 0 c41 0 45 -2
39 -20 -7 -21 10 -28 18 -7 3 6 6 -69 6 -169 1 -126 5 -184 13 -192 19 -19
382 -17 398 3 24 30 8 49 -49 58 -62 8 -72 14 -46 23 25 10 94 86 94 104 0 8
-18 34 -40 58 -44 46 -93 58 -102 25 -4 -17 -5 -17 -6 0 -1 23 -47 23 -59 -1
-5 -9 -15 -41 -22 -70 l-12 -54 -34 33 -34 33 25 26 c34 36 32 50 -10 50 -19
0 -35 -4 -35 -10 0 -5 -4 -10 -9 -10 -7 0 -41 75 -41 93 0 4 47 7 105 7 63 0
105 4 105 10 0 6 7 10 15 10 12 0 15 17 15 90 l0 89 -142 4 -143 3 163 2 162
2 0 -60 c0 -67 -3 -64 93 -73 43 -4 47 -3 47 17 0 13 -23 44 -58 79 l-58 57
-182 0 c-155 0 -182 -2 -182 -15z m280 -105 l0 -70 -170 0 -170 0 0 70 0 70
170 0 170 0 0 -70z"/>
<path d="M540 220 l0 -200 -220 0 c-213 0 -220 1 -220 20 0 11 -4 20 -10 20
-5 0 -10 -13 -10 -30 l0 -30 240 0 240 0 0 210 c0 133 -4 210 -10 210 -6 0
-10 -73 -10 -200z"/>
</g>
</svg>
